<svg xmlns="http://www.w3.org/2000/svg" width="39.076" height="39.076" viewBox="0 0 39.076 39.076">
  <path id="Icon_ionic-logo-whatsapp" data-name="Icon ionic-logo-whatsapp" d="M22.142,2.25A19.109,19.109,0,0,0,2.959,21.285a18.838,18.838,0,0,0,2.753,9.829L2.25,41.326l10.621-3.374A19.215,19.215,0,0,0,41.326,21.285,19.109,19.109,0,0,0,22.142,2.25Zm9.539,26.264c-.451,1.119-2.492,2.14-3.393,2.187s-.925.7-5.83-1.433S14.6,21.954,14.371,21.62a9.407,9.407,0,0,1-1.81-5.1,5.436,5.436,0,0,1,1.867-3.988,1.879,1.879,0,0,1,1.329-.559c.386-.006.636-.012.922,0s.715-.06,1.086.928,1.26,3.415,1.373,3.662a.889.889,0,0,1,.009.852,3.331,3.331,0,0,1-.52.792c-.256.275-.539.614-.767.824-.255.232-.521.486-.253.983a14.679,14.679,0,0,0,2.6,3.466,13.384,13.384,0,0,0,3.846,2.557c.481.262.768.233,1.066-.081s1.277-1.373,1.622-1.846.668-.381,1.111-.2,2.8,1.444,3.286,1.705.8.4.917.6A4.028,4.028,0,0,1,31.681,28.514Z" transform="translate(-2.25 -2.25)" fill="#7b74cf"/>
</svg>
