<svg xmlns="http://www.w3.org/2000/svg" width="42.763" height="35.046" viewBox="0 0 42.763 35.046">
  <path id="Icon_ionic-logo-twitter" data-name="Icon ionic-logo-twitter" d="M42.171,4.066A17.492,17.492,0,0,1,37.2,5.433,8.682,8.682,0,0,0,41.009.643a17.192,17.192,0,0,1-5.5,2.1A8.649,8.649,0,0,0,20.545,8.659a8.47,8.47,0,0,0,.223,1.975A24.519,24.519,0,0,1,2.931,1.582a8.669,8.669,0,0,0,2.69,11.564,8.45,8.45,0,0,1-3.932-1.081v.107a8.659,8.659,0,0,0,6.944,8.49,8.709,8.709,0,0,1-2.279.3A8.162,8.162,0,0,1,4.727,20.8a8.666,8.666,0,0,0,8.087,6.014,17.347,17.347,0,0,1-10.75,3.709A17.537,17.537,0,0,1,0,30.4a24.183,24.183,0,0,0,13.244,3.914c15.934,0,24.638-13.2,24.638-24.647,0-.375-.009-.751-.027-1.117A17.612,17.612,0,0,0,42.171,4.066Z" transform="translate(0.599) rotate(1)" fill="#7b74cf"/>
</svg>
