<svg xmlns="http://www.w3.org/2000/svg" width="21.099" height="21.099" viewBox="0 0 21.099 21.099">
  <path id="Icon_awesome-phone-alt" data-name="Icon awesome-phone-alt" d="M.6,14.91l4.615-1.978a.989.989,0,0,1,1.154.284l2.044,2.5a15.275,15.275,0,0,0,7.3-7.3l-2.5-2.044a.987.987,0,0,1-.284-1.154L14.914.6A1,1,0,0,1,16.047.025l4.286.989a.989.989,0,0,1,.767.964A19.119,19.119,0,0,1,1.978,21.1a.989.989,0,0,1-.964-.766L.024,16.047A1,1,0,0,1,.6,14.91Z" transform="translate(0 0)" fill="#7b74cf"/>
</svg>
