<svg xmlns="http://www.w3.org/2000/svg" width="39.231" height="39.231" viewBox="0 0 39.231 39.231">
  <g id="Icon_feather-instagram" data-name="Icon feather-instagram" transform="translate(2.5 2.5)">
    <path id="Path_259" data-name="Path 259" d="M11.558,3H28.673a8.558,8.558,0,0,1,8.558,8.558V28.673a8.558,8.558,0,0,1-8.558,8.558H11.558A8.558,8.558,0,0,1,3,28.673V11.558A8.558,8.558,0,0,1,11.558,3Z" transform="translate(-3 -3)" fill="none" stroke="#7b74cf" stroke-linecap="round" stroke-linejoin="round" stroke-width="5"/>
    <path id="Path_260" data-name="Path 260" d="M25.683,17.777a6.846,6.846,0,1,1-5.768-5.768,6.846,6.846,0,0,1,5.768,5.768Z" transform="translate(-1.722 -1.74)" fill="none" stroke="#7b74cf" stroke-linecap="round" stroke-linejoin="round" stroke-width="5"/>
    <path id="Path_261" data-name="Path 261" d="M26.25,9.75h0" transform="translate(0.279 -2.048)" fill="none" stroke="#7b74cf" stroke-linecap="round" stroke-linejoin="round" stroke-width="5"/>
  </g>
</svg>
