<svg id="Group_367" data-name="Group 367" xmlns="http://www.w3.org/2000/svg" xmlns:xlink="http://www.w3.org/1999/xlink" width="37.664" height="37.667" viewBox="0 0 37.664 37.667">
  <defs>
    <clipPath id="clip-path">
      <rect id="Rectangle_790" data-name="Rectangle 790" width="37.664" height="37.667" fill="#3e359d"/>
    </clipPath>
  </defs>
  <g id="Group_366" data-name="Group 366" clip-path="url(#clip-path)">
    <path id="Path_520" data-name="Path 520" d="M18.812,37.664c-3.4,0-6.792.006-10.188,0A8.426,8.426,0,0,1,.267,31.346,8.92,8.92,0,0,1,0,29.035q0-10.211,0-20.422A8.4,8.4,0,0,1,6.717.174,8.715,8.715,0,0,1,8.643,0Q18.831,0,29.019,0a8.394,8.394,0,0,1,8.459,6.682,8.72,8.72,0,0,1,.182,1.969q0,10.189,0,20.378a8.384,8.384,0,0,1-6.69,8.452,8.933,8.933,0,0,1-2.014.18q-5.072,0-10.144,0m12.2-18.816A12.179,12.179,0,1,0,18.818,31.012,12.188,12.188,0,0,0,31.011,18.848M33.842,6.3a2.566,2.566,0,1,0-5.132-.009,2.566,2.566,0,0,0,5.132.009" transform="translate(0 0)" fill="#3e359d"/>
    <path id="Path_521" data-name="Path 521" d="M114.988,108.071a6.911,6.911,0,1,1-6.909-6.914,6.931,6.931,0,0,1,6.909,6.914" transform="translate(-89.238 -89.23)" fill="#3e359d"/>
  </g>
</svg>
