<svg xmlns="http://www.w3.org/2000/svg" xmlns:xlink="http://www.w3.org/1999/xlink" width="128.085" height="32.586" viewBox="0 0 128.085 32.586">
  <defs>
    <clipPath id="clip-path">
      <rect id="Rectangle_30" data-name="Rectangle 30" width="128.085" height="32.586" fill="#9089e5"/>
    </clipPath>
  </defs>
  <g id="Group_525" data-name="Group 525" opacity="0.85">
    <g id="Group_15" data-name="Group 15" transform="translate(0 0)" clip-path="url(#clip-path)">
      <path id="Path_20" data-name="Path 20" d="M8.8,0H1.17A1.17,1.17,0,0,0,0,1.17V19.218a.8.8,0,0,0,.8.8H3a.8.8,0,0,0,.8-.8v-6.2h5a7.314,7.314,0,0,0,5.215-1.757,6.186,6.186,0,0,0,1.87-4.736,6.223,6.223,0,0,0-1.87-4.765A7.314,7.314,0,0,0,8.8,0m2.376,8.925a3.585,3.585,0,0,1-2.544.829H3.794V3.261H8.629a3.548,3.548,0,0,1,2.544.842,3.186,3.186,0,0,1,.885,2.418,3.138,3.138,0,0,1-.885,2.4" transform="translate(0 0)" fill="#9089e5"/>
      <path id="Path_21" data-name="Path 21" d="M49.078,15.725q0-4.357-6.044-4.357-5.574,0-6.4,3.985a.8.8,0,0,0,.783.964h1.9a.791.791,0,0,0,.769-.6,2.027,2.027,0,0,1,.692-1.187,3.69,3.69,0,0,1,2.221-.52,3.608,3.608,0,0,1,2.039.436,1.573,1.573,0,0,1,.6,1.364,1.365,1.365,0,0,1-.479,1.138,3.226,3.226,0,0,1-1.575.52l-2.192.2q-5.566.564-5.566,4.527a3.9,3.9,0,0,0,1.42,3.2,5.864,5.864,0,0,0,3.809,1.153,5.277,5.277,0,0,0,4.667-2.108,7.22,7.22,0,0,0,.284,1.521.389.389,0,0,0,.345.25H49.09a.343.343,0,0,0,.329-.466,6.208,6.208,0,0,1-.342-2.289Zm-3.428,4.752a3.312,3.312,0,0,1-1.04,2.628,3.942,3.942,0,0,1-2.7.915A2.79,2.79,0,0,1,40.1,23.5a1.778,1.778,0,0,1-.633-1.448,1.729,1.729,0,0,1,.6-1.421,4,4,0,0,1,2.01-.659l1.911-.225a4.232,4.232,0,0,0,1.177-.291.346.346,0,0,1,.483.323Z" transform="translate(-19.534 -6.196)" fill="#9089e5"/>
      <path id="Path_22" data-name="Path 22" d="M74.3,14.427v-1.6a.991.991,0,0,0-.99-.99H71.864a.991.991,0,0,0-.991.99V25.551a.8.8,0,0,0,.8.8h1.95a.8.8,0,0,0,.8-.8v-6.57A3.972,3.972,0,0,1,75.5,15.959,4.346,4.346,0,0,1,78.6,14.933h.9V11.672a6.231,6.231,0,0,0-.872-.056A4.343,4.343,0,0,0,74.3,14.427" transform="translate(-38.631 -6.331)" fill="#9089e5"/>
      <path id="Path_23" data-name="Path 23" d="M118.106,19.156a8.044,8.044,0,0,0-3.837-1.517l-1.827-.282a4.623,4.623,0,0,1-1.855-.632,1.33,1.33,0,0,1-.563-1.139q0-1.686,2.531-1.686a3.827,3.827,0,0,1,2.248.547,1.939,1.939,0,0,1,.735,1.2.827.827,0,0,0,.807.642h1.687a.84.84,0,0,0,.822-.991q-.749-3.927-6.3-3.928a7.344,7.344,0,0,0-4.442,1.167,3.784,3.784,0,0,0-1.574,3.218q0,3.6,4.752,4.385l1.658.28a6.132,6.132,0,0,1,2.221.7,1.376,1.376,0,0,1,.618,1.209q0,1.744-2.867,1.743a3.905,3.905,0,0,1-2.347-.563,2.234,2.234,0,0,1-.781-1.3.824.824,0,0,0-.8-.611h-1.812a.84.84,0,0,0-.82,1q.828,4,6.506,4a8.194,8.194,0,0,0,4.751-1.182,3.87,3.87,0,0,0,1.686-3.373,3.638,3.638,0,0,0-1.194-2.9" transform="translate(-57.963 -6.197)" fill="#9089e5"/>
      <path id="Path_24" data-name="Path 24" d="M154.447,58.031h0a15.7,15.7,0,0,1-12.057-5.153.621.621,0,0,0-.853-.1l-1.6,1.22a.621.621,0,0,0-.11.883,18.93,18.93,0,0,0,14.622,6.4h0a18.931,18.931,0,0,0,14.625-6.409.619.619,0,0,0-.111-.883l-1.6-1.22a.62.62,0,0,0-.853.105,15.692,15.692,0,0,1-12.057,5.155" transform="translate(-76.139 -28.696)" fill="#9089e5"/>
      <path id="Path_25" data-name="Path 25" d="M186.27.919h-2.005a.991.991,0,0,0-.99.99V20.137a.8.8,0,0,0,.8.8h1.951a.8.8,0,0,0,.8-.8V1.465a.547.547,0,0,0-.546-.546" transform="translate(-99.898 -0.501)" fill="#9089e5"/>
      <path id="Path_26" data-name="Path 26" d="M200.906,10.2l-3.542-1.076V25.033a.352.352,0,0,0,.352.352h2.838a.352.352,0,0,0,.352-.352Z" transform="translate(-107.577 -4.973)" fill="#9089e5"/>
      <path id="Path_27" data-name="Path 27" d="M94.047,10.246,97.59,9.171V25.08a.352.352,0,0,1-.352.352H94.4a.352.352,0,0,1-.352-.352Z" transform="translate(-51.263 -4.999)" fill="#9089e5"/>
      <path id="Path_28" data-name="Path 28" d="M219.356,12.262a5.2,5.2,0,0,0-4.522,2.416V13.589a.99.99,0,0,0-.991-.99H212.4a.991.991,0,0,0-.991.99V26.74a.352.352,0,0,0,.352.352h2.835a.352.352,0,0,0,.353-.352V18.974a3.447,3.447,0,0,1,1.629-3.22,3.251,3.251,0,0,1,1.786-.428q2.54.091,2.54,2.749V26.74a.352.352,0,0,0,.352.352h2.836a.352.352,0,0,0,.352-.352V17.486a5.225,5.225,0,0,0-1.362-3.862,5.031,5.031,0,0,0-3.722-1.362" transform="translate(-115.233 -6.684)" fill="#9089e5"/>
      <path id="Path_29" data-name="Path 29" d="M252.1,12.26a6.879,6.879,0,0,0-5.2,2.079,7.684,7.684,0,0,0-1.967,5.505,7.621,7.621,0,0,0,1.994,5.506,6.908,6.908,0,0,0,5.224,2.079,7.25,7.25,0,0,0,4.381-1.306,6.054,6.054,0,0,0,2.36-3.525h-3.4a3.3,3.3,0,0,1-3.313,2.079,3.573,3.573,0,0,1-2.6-.941,4.408,4.408,0,0,1-1.165-2.8h10.842V20.1a8.181,8.181,0,0,0-1.938-5.673A6.664,6.664,0,0,0,252.1,12.26m-3.651,6.208q.506-3.454,3.623-3.455a3.4,3.4,0,0,1,2.472.927,4.223,4.223,0,0,1,1.18,2.528Z" transform="translate(-133.507 -6.682)" fill="#9089e5"/>
      <path id="Path_30" data-name="Path 30" d="M276.858,11.194a.45.45,0,0,0-.245-.433.48.48,0,0,0,.294-.481.536.536,0,0,0-.2-.444.863.863,0,0,0-.55-.159h-.946v2.086h.473v-.775h.44a.254.254,0,0,1,.192.059.374.374,0,0,1,.07.212l.015.22a.606.606,0,0,0,.073.285h.5a.512.512,0,0,1-.09-.285Zm-.726-.6h-.449v-.513h.433c.2,0,.3.083.3.252s-.095.261-.285.261" transform="translate(-150.01 -5.274)" fill="#9089e5"/>
      <path id="Path_31" data-name="Path 31" d="M274.493,7.581a2.03,2.03,0,0,0-1.474.587,1.994,1.994,0,0,0,0,2.86,2.158,2.158,0,0,0,2.957,0,2.016,2.016,0,0,0,0-2.86,2.04,2.04,0,0,0-1.483-.587m1.158,3.146a1.7,1.7,0,0,1-2.307-.009A1.49,1.49,0,0,1,272.88,9.6a1.512,1.512,0,0,1,.463-1.133,1.685,1.685,0,0,1,2.307,0,1.623,1.623,0,0,1,0,2.258" transform="translate(-148.486 -4.132)" fill="#9089e5"/>
      <path id="Path_32" data-name="Path 32" d="M142.813,16.52h.008l1.145-3.232.758-2.166q1.1-2.939,2.141-5.963a.324.324,0,0,1,.614,0q1.285,3.723,2.165,5.96l.787,2.166h-.025l1.168,3.232h.01l1.385,3.885a.8.8,0,0,0,.749.529h2.3a.8.8,0,0,0,.742-1.084L149.805,1.916a1.561,1.561,0,0,0-1.456-1h-2.3a1.56,1.56,0,0,0-1.459,1.006l-6.825,17.93a.8.8,0,0,0,.744,1.079H140.7a.8.8,0,0,0,.751-.533Z" transform="translate(-75.066 -0.501)" fill="#9089e5"/>
      <path id="Path_33" data-name="Path 33" d="M198.18.965h1.975a.756.756,0,0,1,.756.755V4.3l-3.486-1.077V1.72a.755.755,0,0,1,.755-.755" transform="translate(-107.611 -0.526)" fill="#9089e5"/>
      <path id="Path_34" data-name="Path 34" d="M96.839.965H94.864a.756.756,0,0,0-.756.755V4.3l3.486-1.077V1.72a.755.755,0,0,0-.755-.755" transform="translate(-51.296 -0.526)" fill="#9089e5"/>
    </g>
  </g>
</svg>
