<svg xmlns="http://www.w3.org/2000/svg" xmlns:xlink="http://www.w3.org/1999/xlink" width="237.848" height="91.937" viewBox="0 0 237.848 91.937">
  <defs>
    <filter id="Rectangle_871" x="-9" y="-6" width="255.848" height="109.937" filterUnits="userSpaceOnUse">
      <feOffset dy="3" input="SourceAlpha"/>
      <feGaussianBlur stdDeviation="3" result="blur"/>
      <feFlood flood-opacity="0.161"/>
      <feComposite operator="in" in2="blur"/>
      <feComposite in="SourceGraphic"/>
    </filter>
    <clipPath id="clip-path">
      <g transform="matrix(1, 0, 0, 1, 0, 0)" filter="url(#Rectangle_871)">
        <rect id="Rectangle_871-2" data-name="Rectangle 871" width="237.848" height="91.937" fill="none"/>
      </g>
    </clipPath>
  </defs>
  <g id="Group_575" data-name="Group 575" clip-path="url(#clip-path)">
    <path id="Path_640" data-name="Path 640" d="M205.927,78.088a99.611,99.611,0,0,1-1.282,15.66,10.8,10.8,0,0,1-5.8,8.182c-4.3,2.369-9,3.342-13.807,3.956a29.869,29.869,0,0,1-9.767-.076,2.082,2.082,0,0,0-1.6.287c-7.6,4.555-16.025,5.372-24.615,5.456a3.434,3.434,0,0,1-.427-.015c-3.723-.418-7.212-.747-10.781,1.583-2.931,1.913-6.848,1.588-10.37,1.923-6.736.64-13.544,1.153-20.185-.283a19.3,19.3,0,0,0-8.694,0c-6.571,1.44-13.308.872-19.977.322-2.614-.215-5.2-.734-7.807-1.062a10.246,10.246,0,0,1-5.454-2.2,4.13,4.13,0,0,0-3.667-.771c-9.258,1.178-18.323.316-26.871-3.534a14.9,14.9,0,0,0-7.395-1.4,40.618,40.618,0,0,1-18.881-3.429A11.667,11.667,0,0,1,1.129,93.1C-.03,85.028-.543,77,.8,68.9,2.615,57.921,11.179,52.867,21.84,56.556a22.742,22.742,0,0,1,8.145,4.907c.434.4.738.986,1.405.06,3.588-4.978,8.835-6.233,14.515-5.876a25.053,25.053,0,0,1,16.927,7.481c.4.408.711.974,1.275.155,7.928-11.5,24.046-8.694,32.5-1.776a24.975,24.975,0,0,1,5.365,5.753c.807,1.26,1.082,1.182,1.94,0,5.539-7.63,13.061-11.63,22.51-11.751a17.852,17.852,0,0,1,14.808,7.115c.97,1.225,1.285.973,2.282.078,6.718-6.032,14.5-8.407,23.415-6.329a11.791,11.791,0,0,1,7.3,4.826c.692,1.015,1.075.869,1.848.146a20.992,20.992,0,0,1,12.735-5.811c8.778-.757,14.781,4.128,16.237,12.958a55.408,55.408,0,0,1,.878,9.6M173.116,98.959c1.378,1.209,1.95,1.61,3.326,1.743a36.422,36.422,0,0,0,19.707-3.254,5.748,5.748,0,0,0,3.364-4.6,76.39,76.39,0,0,0,.465-22.949c-1.157-7.722-6.365-10.977-13.813-8.5a18.719,18.719,0,0,0-11.492,10.7c-.244.547-.353,1.389-1.206,1.243-.779-.134-.724-.913-.87-1.53-.34-1.445-.657-2.9-1.132-4.308-1.514-4.468-3.9-6.25-8.614-6.551-9.742-.621-16.7,4.012-20.147,13.322-.387,1.044-.326,2.976-1.638,2.816-1.336-.164-.835-2.006-.909-3.125-.552-8.338-7.2-14.058-15.416-13.2-10.791,1.124-18.122,7.928-20.1,18.6-.23,1.238.106,3.2-1.663,3.239-1.832.043-1.5-1.946-1.719-3.165-1.791-9.757-7.514-15.876-17.091-18.224C74.087,58.741,66.429,64.456,65.7,74.745c-.061.864.245,2.2-.8,2.4-1.209.227-1.162-1.212-1.406-1.993-2.144-6.84-6.2-11.914-13.426-13.5-10.9-2.393-14.9.515-16.661,9.243-.042.209-.083.419-.1.631-.072.7.01,1.623-.814,1.79-1.078.219-1.076-.895-1.387-1.548A18.935,18.935,0,0,0,19.19,61.215c-7.035-2.131-12.143,1.151-13.252,8.4C4.807,77,5.245,84.341,6.173,91.721a7.385,7.385,0,0,0,5.213,6.525,38.626,38.626,0,0,0,16.7,2.583,6.422,6.422,0,0,0,4.161-1.351c.392-.358.651-.531.9.028,1.185,2.63,3.715,3.382,6.087,4.25A43.7,43.7,0,0,0,52.8,106.274c4.406.154,8.968.652,12.8-2.479a7.161,7.161,0,0,0,5.834,5.065,102.241,102.241,0,0,0,23.819,1.24c2.625-.139,5.242-.569,6.822-3.206.66-1.1,1.451-.593,1.973.269a5.555,5.555,0,0,0,4.413,2.612,94.523,94.523,0,0,0,24.661-.7c3.452-.513,6.006-1.9,7.247-5.4a7.536,7.536,0,0,0,4.772,2.277,47.221,47.221,0,0,0,20.631-1.882c2.893-.858,5.858-1.875,7.351-5.11" transform="translate(0 -23.747)" fill="#edeeef"/>
    <path id="Path_641" data-name="Path 641" d="M177.069,102.876c-1.493,3.235-4.458,4.252-7.351,5.11a47.221,47.221,0,0,1-20.631,1.882,7.536,7.536,0,0,1-4.772-2.277c-1.241,3.5-3.8,4.883-7.247,5.4a94.525,94.525,0,0,1-24.661.7,5.555,5.555,0,0,1-4.413-2.612c-.522-.862-1.313-1.371-1.973-.269-1.58,2.637-4.2,3.067-6.822,3.206a102.238,102.238,0,0,1-23.819-1.24,7.161,7.161,0,0,1-5.834-5.065c-3.829,3.132-8.391,2.633-12.8,2.48a43.7,43.7,0,0,1-13.561-2.517c-2.373-.869-4.9-1.621-6.087-4.25-.252-.559-.511-.386-.9-.028a6.422,6.422,0,0,1-4.161,1.351,38.625,38.625,0,0,1-16.7-2.583,7.385,7.385,0,0,1-5.213-6.525C9.2,88.258,8.761,80.912,9.891,73.53,11,66.282,16.108,63,23.144,65.132A18.935,18.935,0,0,1,35.052,75.684c.311.653.309,1.767,1.387,1.548.824-.167.742-1.091.814-1.79.022-.212.062-.422.1-.631,1.757-8.728,5.761-11.636,16.661-9.243,7.226,1.586,11.282,6.66,13.426,13.5.244.781.2,2.22,1.406,1.993,1.048-.2.742-1.535.8-2.4.729-10.289,8.387-16,18.467-13.533,9.578,2.348,15.3,8.467,17.091,18.224.224,1.219-.113,3.208,1.719,3.165,1.769-.041,1.434-2,1.663-3.239,1.979-10.668,9.31-17.471,20.1-18.6,8.216-.857,14.864,4.863,15.416,13.2.074,1.119-.427,2.961.909,3.125,1.312.16,1.251-1.771,1.638-2.816,3.442-9.31,10.406-13.943,20.147-13.322,4.713.3,7.1,2.082,8.614,6.55.476,1.4.792,2.863,1.132,4.308.146.617.091,1.4.87,1.53.853.146.962-.7,1.206-1.243a18.719,18.719,0,0,1,11.492-10.7c7.447-2.478,12.656.776,13.812,8.5a76.388,76.388,0,0,1-.465,22.949,5.748,5.748,0,0,1-3.364,4.6,36.422,36.422,0,0,1-19.707,3.254c-1.377-.133-1.948-.533-3.326-1.743" transform="translate(-3.954 -27.664)" fill="#e0e1e3"/>
    <path id="Path_642" data-name="Path 642" d="M252.116,12.163c17-.329,37.319-.725,57.643-1.116a13.615,13.615,0,0,1,2.32.018,2.053,2.053,0,0,1,1.928,2.184,1.942,1.942,0,0,1-1.787,2.1,31.408,31.408,0,0,1-3.385.188q-28.431.466-56.863.917c-2.746.045-2.654.067-3.232,2.774-1.319,6.186-.448,12.335.139,18.5a22.155,22.155,0,0,1,.169,2.493c-.109,6.084-5.031,9.408-10.67,7.082a2.253,2.253,0,0,0-2.856.52,8.926,8.926,0,0,1-12.529-.635c-.418-.439-.612-1.114-1.5-.436-4.189,3.2-8.568,2.609-12.887.325a2.339,2.339,0,0,0-2.949.159c-3.6,2.65-10.253,3.225-13.163-1.16-.518-.781-1.005-.278-1.514-.048a8.743,8.743,0,0,1-5.7.913c-4.049-.952-6.238-4.834-5.394-9.692.65-3.742,1.48-7.453,2.11-11.2a45.322,45.322,0,0,0,.562-8.728,1.837,1.837,0,0,0-1-1.685,8.013,8.013,0,0,1-3.676-9.226,8.2,8.2,0,0,1,8.068-6.1c12.636-.341,25.279-.507,37.905.077q26.274,1.215,52.563.958c11.267-.118,22.534-.178,33.8-.254a11.9,11.9,0,0,1,2.132.121,1.882,1.882,0,0,1,1.636,1.854A1.956,1.956,0,0,1,312.615,5.3a4.53,4.53,0,0,1-1.388.24c-19.614.1-39.229.386-58.841.222-16.805-.14-33.588-1.5-50.408-1.286-5.245.068-10.49.047-15.736.247-3.14.12-4.3,2.293-4.249,4.04.066,2.318,1.784,3.681,4.551,3.678,20.747-.022,41.492-.567,65.571-.274M192.99,16.714v.1c-1.489,0-2.981.055-4.467-.017-1.244-.06-1.778.235-1.69,1.666a36.9,36.9,0,0,1-.661,9.242c-.615,3.2-1.279,6.4-1.831,9.614-.3,1.759-.666,3.73,1.07,4.935,1.693,1.175,3.27-.01,4.8-.784a4,4,0,0,1,5.138,1.022c2.332,2.807,4.842,3.457,7.65,1.182,2.825-2.29,5.247-2.306,8-.265a5.819,5.819,0,0,0,1.632.7,6.281,6.281,0,0,0,6.381-.949c2.826-2.294,4.519-2.083,6.946.749a4.557,4.557,0,0,0,7.04.278c2.452-2.466,3.281-2.61,6.405-1.181a6.136,6.136,0,0,0,1.682.533c2.277.312,3.4-.6,3.458-2.894a25.3,25.3,0,0,0-.192-4.457,51.741,51.741,0,0,1,.28-18.471c.272-1.3-.263-1.227-1.128-1.221-2.861.019-5.726.094-8.582-.029-1.439-.062-1.874.464-1.911,1.8a47.858,47.858,0,0,0,.738,11.022c.379,1.846-.236,2.937-1.63,3.144-1.434.212-2.276-.578-2.665-2.44a40.64,40.64,0,0,1-.71-12.078c.1-1.079-.147-1.442-1.306-1.393-2.738.115-5.482.12-8.222.07-1.017-.019-1.273.292-1.3,1.289-.057,2.559-.2,5.121-.425,7.671-.149,1.677-1.209,2.621-2.472,2.459-1.361-.175-2.072-1.4-1.934-3.108.187-2.314.259-4.637.452-6.951.083-.991-.179-1.357-1.235-1.324-2.561.081-5.129.124-7.687.019-1.284-.053-1.43.447-1.36,1.528a47.37,47.37,0,0,1-1.011,11.174,2.155,2.155,0,0,1-4.281-.45,14.608,14.608,0,0,1,.2-1.59,61.677,61.677,0,0,0,.767-8.521c.006-1.826-.66-2.338-2.381-2.1a26.783,26.783,0,0,1-3.571.03" transform="translate(-76.161 0)" fill="#7b74cf"/>
  </g>
</svg>
