<svg id="Group_594" data-name="Group 594" xmlns="http://www.w3.org/2000/svg" xmlns:xlink="http://www.w3.org/1999/xlink" width="195.072" height="115.984" viewBox="0 0 195.072 115.984">
  <defs>
    <clipPath id="clip-path">
      <rect id="Rectangle_854" data-name="Rectangle 854" width="187.085" height="54.801" fill="none"/>
    </clipPath>
  </defs>
  <path id="Path_622" data-name="Path 622" d="M162.319.09c-18.363.966-35.8,5.819-52.66,12.873A29.693,29.693,0,0,1,85.47,13,168.9,168.9,0,0,0,44.76,1.252c-9.032-1.4-18.12-2.028-27.125.406C8.373,4.162,3.605,10.89,1.316,19.613-1.534,30.478.434,40.847,5.4,50.74a8.294,8.294,0,0,1,.947,4.051,74.068,74.068,0,0,0,1.1,13.5,7.188,7.188,0,0,0,3.932,5.638A33.476,33.476,0,0,0,32.035,77.17c.528-.081.978-.492,1.6.024,3.68,3.042,8.171,3.964,12.716,4.647,5.252.789,10.516,1.4,15.715-.363.621-.211.955.187,1.3.576a8.651,8.651,0,0,0,5.206,2.753,91.73,91.73,0,0,0,23.569.984c2.011-.191,3.618-1.84,5.344-1.895s3.321,1.689,5.335,1.884a91.857,91.857,0,0,0,23.571-.963,7.22,7.22,0,0,0,4.49-2.076c1.126-1.3,2.221-1.182,3.693-.816,5.2,1.292,10.406.586,15.57-.312,4.078-.709,8.09-1.7,11.362-4.49.457-.39.813-.09,1.242-.015A33.6,33.6,0,0,0,183.1,74.247a7.573,7.573,0,0,0,4.531-6.071,78.971,78.971,0,0,0,1.076-13.893,6.384,6.384,0,0,1,.745-3.123c5.219-10.377,7.4-21.216,3.96-32.575C189.28,4.944,181.2,1.519,170.266.373A42.252,42.252,0,0,0,162.319.09m-29.6,45.58c-2.242-5.14-5.891-8.429-11.271-9.181A21.839,21.839,0,0,0,98.215,49.856c-.19.44-.04,1.224-.868,1.318C94.993,44.829,90.781,40.2,84.46,37.8c-9.383-3.566-18.275-1.1-21.96,7.523-.025.059-.192.056-.294.082-5.23-5.648-8.11-7.563-13.914-8.764-6.62-1.37-13.457.388-15.368,7.376-.022.082-.2.121-.411.237a19.414,19.414,0,0,0-8.472-6.764c-3.317-1.375-6.679-1.943-10.16-.656a10.354,10.354,0,0,0-6.237,6.677c-.214-.277-.382-.41-.439-.58C4.761,35.616,3.949,28.165,6,20.653,7.721,14.33,10.831,8.949,17.54,6.666a33.589,33.589,0,0,1,9.106-1.673A96.581,96.581,0,0,1,50.7,7.12,184.651,184.651,0,0,1,85.248,17.976a30.964,30.964,0,0,0,24.488.016A185.2,185.2,0,0,1,140.882,7.847c10.188-2.237,20.442-3.736,30.928-2.506,7.62.893,13.182,4.5,16.08,11.778A34.225,34.225,0,0,1,189.723,35.2a31.732,31.732,0,0,1-2.244,8.441c-2.257-5.272-5.868-7.789-10.813-7.517a18.287,18.287,0,0,0-9.653,3.6,27.884,27.884,0,0,0-4.79,4.787c-1.374-5.173-4.737-7.586-9.642-8.139a20.68,20.68,0,0,0-10.726,1.853,23.215,23.215,0,0,0-9.13,7.452m-67.54,20.39c.009-6.032.084-11.717,1.257-17.308a9.214,9.214,0,0,1,6.7-7.3c8.037-2.472,18.036,3.8,20.1,12.635a70.506,70.506,0,0,1,1.88,20.553c-.36,5.7.205,6.25-6.143,6.635a88.453,88.453,0,0,1-19.288-1.131c-2.71-.431-3.785-1.8-4.136-4.561-.416-3.282-.226-6.582-.373-9.523m34.629,6.234a85.474,85.474,0,0,1,1.677-16.738c1.659-7.852,6.453-12.7,14.355-14.323,6.648-1.368,12.022,2.074,13.029,8.5a113.75,113.75,0,0,1,.623,25.9c-.2,2.8-1.521,4.153-4.343,4.589a85.831,85.831,0,0,1-21.81.865c-1.806-.182-2.969-1-3.129-3a56.6,56.6,0,0,1-.4-5.786m-39.156-7.1h.136c0,3.294-.163,6.6.069,9.876.116,1.63-.366,2.239-1.821,2.394a41.239,41.239,0,0,1-20.658-2.723,3.944,3.944,0,0,1-2.568-3.526,77.416,77.416,0,0,1,1.04-23.5c1.168-5.66,3.161-7.049,9.529-6.606a11.281,11.281,0,0,1,1.7.347c6.416,1.47,13.244,7.15,12.6,15.79-.2,2.634-.031,5.3-.031,7.945m73.706.3.4,0c-.1-2.064-.21-4.127-.281-6.192a23.2,23.2,0,0,1,.076-5.793c1.557-7.134,8.319-12.412,15.93-12.475,4.519-.038,6.439,1.266,7.468,5.629A73.261,73.261,0,0,1,159.2,71.471a3.8,3.8,0,0,1-2.4,3.221,31.543,31.543,0,0,1-7.734,2.314,43.512,43.512,0,0,1-12.523.554c-1.554-.168-2.456-.545-2.258-2.586.305-3.133.08-6.318.08-9.48M11.076,56.028c.148-3.648.045-7.219,1.038-10.68.864-3.011,2.654-4.4,5.8-4.361,4.4.058,7.736,2.264,10.36,5.592,1.744,2.212,3.03,4.725,2.764,7.65a73.817,73.817,0,0,0,.105,16.641c.182,1.341-.255,1.9-1.536,1.97a32.143,32.143,0,0,1-15.635-2.833,3.371,3.371,0,0,1-1.911-2.692,86.392,86.392,0,0,1-.984-11.286m172.909.024a82.3,82.3,0,0,1-1.021,11.411,3.085,3.085,0,0,1-1.68,2.413A30.989,30.989,0,0,1,165.337,72.8c-1.2-.08-1.595-.618-1.417-1.852a59.845,59.845,0,0,0,.405-12.553,36.387,36.387,0,0,1-.289-5.4c.46-5.456,6-11.143,11.411-11.932,4.583-.669,7.088,1.186,7.881,5.782a64.184,64.184,0,0,1,.657,9.2" transform="translate(0 0)" fill="#7b74cf"/>
  <g id="Group_534" data-name="Group 534" transform="translate(6.256 61.183)" opacity="0.88">
    <g id="Group_533" data-name="Group 533">
      <g id="Group_532" data-name="Group 532" clip-path="url(#clip-path)">
        <path id="Path_623" data-name="Path 623" d="M3.345,138.585A90.492,90.492,0,0,0,4.51,152.811a9.809,9.809,0,0,0,5.271,7.433,34.5,34.5,0,0,0,12.543,3.594,27.133,27.133,0,0,0,8.873-.069,1.891,1.891,0,0,1,1.457.261c6.9,4.138,14.558,4.881,22.362,4.957a3.117,3.117,0,0,0,.388-.013c3.382-.38,6.552-.679,9.794,1.438,2.662,1.738,6.221,1.443,9.42,1.747,6.119.582,12.3,1.047,18.338-.257a17.53,17.53,0,0,1,7.9,0c5.97,1.308,12.09.792,18.148.292,2.374-.2,4.725-.667,7.092-.965a9.307,9.307,0,0,0,4.954-2,3.752,3.752,0,0,1,3.332-.7c8.411,1.07,16.645.287,24.411-3.211a13.54,13.54,0,0,1,6.718-1.271,36.9,36.9,0,0,0,17.153-3.115,10.6,10.6,0,0,0,6.734-8.714c1.053-7.333,1.519-14.63.3-21.985-1.651-9.974-9.432-14.566-19.117-11.214a20.661,20.661,0,0,0-7.4,4.458c-.394.367-.67.9-1.277.054-3.259-4.523-8.026-5.662-13.187-5.338a22.76,22.76,0,0,0-15.378,6.8c-.363.371-.646.885-1.158.141-7.2-10.448-21.845-7.9-29.525-1.613a22.688,22.688,0,0,0-4.874,5.227c-.734,1.145-.983,1.074-1.763,0a24.506,24.506,0,0,0-20.449-10.675,16.218,16.218,0,0,0-13.452,6.464c-.881,1.113-1.168.884-2.074.071-6.1-5.48-13.175-7.637-21.272-5.75a10.712,10.712,0,0,0-6.632,4.384c-.628.922-.977.789-1.679.133a19.071,19.071,0,0,0-11.569-5.279c-7.975-.688-13.428,3.75-14.751,11.772a50.332,50.332,0,0,0-.8,8.719m29.808,18.961c-1.252,1.1-1.771,1.462-3.022,1.583a33.088,33.088,0,0,1-17.9-2.956A5.222,5.222,0,0,1,9.172,152a69.4,69.4,0,0,1-.422-20.848c1.051-7.015,5.783-9.972,12.548-7.72a17.005,17.005,0,0,1,10.44,9.717c.222.5.321,1.262,1.1,1.129.708-.121.658-.829.79-1.39.309-1.313.6-2.639,1.029-3.914,1.375-4.059,3.543-5.677,7.825-5.951,8.85-.564,15.176,3.645,18.3,12.1.351.949.3,2.7,1.488,2.558,1.213-.149.758-1.822.825-2.839.5-7.575,6.541-12.771,14-11.993,9.8,1.022,16.463,7.2,18.261,16.893.209,1.125-.1,2.905,1.511,2.943,1.664.039,1.359-1.767,1.562-2.875,1.627-8.864,6.826-14.423,15.527-16.556,9.157-2.245,16.114,2.947,16.776,12.294.056.785-.223,2,.729,2.179,1.1.206,1.055-1.1,1.277-1.811,1.948-6.214,5.632-10.823,12.2-12.264,9.9-2.174,13.539.467,15.136,8.4.038.19.075.381.095.573.065.635-.009,1.474.74,1.626.979.2.977-.813,1.26-1.406a17.2,17.2,0,0,1,10.818-9.586c6.391-1.936,11.031,1.045,12.039,7.629a72.279,72.279,0,0,1-.214,20.084,6.709,6.709,0,0,1-4.735,5.928,35.09,35.09,0,0,1-15.171,2.347,5.835,5.835,0,0,1-3.78-1.227c-.356-.325-.591-.482-.82.025-1.077,2.389-3.375,3.072-5.53,3.861a39.7,39.7,0,0,1-12.319,2.287c-4,.139-8.147.592-11.625-2.253a6.505,6.505,0,0,1-5.3,4.6,92.881,92.881,0,0,1-21.639,1.126c-2.384-.126-4.762-.517-6.2-2.913-.6-1-1.318-.539-1.792.244A5.047,5.047,0,0,1,91.9,167.37a85.87,85.87,0,0,1-22.4-.639c-3.136-.466-5.456-1.722-6.584-4.9a6.846,6.846,0,0,1-4.335,2.068,42.9,42.9,0,0,1-18.743-1.71c-2.628-.78-5.322-1.7-6.678-4.642" transform="translate(-3.337 -117.937)" fill="#edeeef"/>
        <path id="Path_624" data-name="Path 624" d="M37.564,161.939c1.357,2.939,4.05,3.863,6.678,4.643a42.9,42.9,0,0,0,18.743,1.71,6.846,6.846,0,0,0,4.335-2.068c1.128,3.18,3.448,4.436,6.584,4.9a85.874,85.874,0,0,0,22.4.639,5.047,5.047,0,0,0,4.009-2.373c.474-.783,1.193-1.245,1.792-.244,1.435,2.4,3.813,2.786,6.2,2.912a92.88,92.88,0,0,0,21.639-1.126,6.505,6.505,0,0,0,5.3-4.6c3.478,2.845,7.623,2.392,11.625,2.252a39.7,39.7,0,0,0,12.319-2.287c2.156-.789,4.453-1.472,5.53-3.861.229-.508.464-.351.82-.025a5.834,5.834,0,0,0,3.78,1.227,35.09,35.09,0,0,0,15.171-2.347,6.709,6.709,0,0,0,4.735-5.927,72.28,72.28,0,0,0,.214-20.084c-1.008-6.584-5.648-9.565-12.039-7.629a17.2,17.2,0,0,0-10.818,9.586c-.283.593-.281,1.605-1.26,1.406-.749-.152-.674-.991-.74-1.626-.02-.192-.057-.383-.095-.573-1.6-7.929-5.234-10.571-15.136-8.4-6.565,1.441-10.249,6.05-12.2,12.264-.222.71-.179,2.017-1.277,1.811-.952-.178-.674-1.394-.729-2.179-.662-9.347-7.619-14.539-16.776-12.294-8.7,2.133-13.9,7.692-15.527,16.556-.2,1.108.1,2.914-1.562,2.875-1.607-.037-1.3-1.818-1.511-2.942-1.8-9.691-8.458-15.872-18.261-16.893-7.464-.778-13.5,4.418-14,11.992-.067,1.017.388,2.69-.825,2.839-1.192.146-1.137-1.609-1.488-2.558-3.127-8.458-9.453-12.667-18.3-12.1-4.282.273-6.45,1.891-7.825,5.951-.432,1.275-.72,2.6-1.029,3.914-.132.561-.082,1.268-.79,1.39-.775.133-.874-.632-1.1-1.129a17,17,0,0,0-10.44-9.717c-6.765-2.251-11.5.7-12.548,7.72a69.4,69.4,0,0,0,.422,20.848,5.222,5.222,0,0,0,3.056,4.176,33.088,33.088,0,0,0,17.9,2.956c1.251-.121,1.77-.485,3.022-1.583" transform="translate(-7.748 -122.331)" fill="#e0e1e3"/>
      </g>
    </g>
  </g>
</svg>
