<svg id="Group_574" data-name="Group 574" xmlns="http://www.w3.org/2000/svg" xmlns:xlink="http://www.w3.org/1999/xlink" width="193.631" height="189.567" viewBox="0 0 193.631 189.567">
  <defs>
    <clipPath id="clip-path">
      <rect id="Rectangle_870" data-name="Rectangle 870" width="193.631" height="189.567" fill="none"/>
    </clipPath>
    <clipPath id="clip-path-3">
      <rect id="Rectangle_857" data-name="Rectangle 857" width="18.762" height="18.616" fill="none"/>
    </clipPath>
    <clipPath id="clip-path-4">
      <rect id="Rectangle_858" data-name="Rectangle 858" width="18.77" height="18.629" fill="none"/>
    </clipPath>
    <clipPath id="clip-path-5">
      <rect id="Rectangle_859" data-name="Rectangle 859" width="18.742" height="18.619" fill="none"/>
    </clipPath>
    <clipPath id="clip-path-6">
      <rect id="Rectangle_860" data-name="Rectangle 860" width="18.758" height="18.613" fill="none"/>
    </clipPath>
    <clipPath id="clip-path-7">
      <rect id="Rectangle_861" data-name="Rectangle 861" width="18.735" height="18.622" fill="none"/>
    </clipPath>
    <clipPath id="clip-path-8">
      <rect id="Rectangle_862" data-name="Rectangle 862" width="18.749" height="18.63" fill="none"/>
    </clipPath>
    <clipPath id="clip-path-9">
      <rect id="Rectangle_863" data-name="Rectangle 863" width="18.761" height="18.614" fill="none"/>
    </clipPath>
    <clipPath id="clip-path-10">
      <rect id="Rectangle_864" data-name="Rectangle 864" width="18.771" height="18.611" fill="none"/>
    </clipPath>
    <clipPath id="clip-path-11">
      <rect id="Rectangle_865" data-name="Rectangle 865" width="18.741" height="18.61" fill="none"/>
    </clipPath>
    <clipPath id="clip-path-12">
      <rect id="Rectangle_866" data-name="Rectangle 866" width="18.736" height="18.618" fill="none"/>
    </clipPath>
    <clipPath id="clip-path-13">
      <rect id="Rectangle_867" data-name="Rectangle 867" width="18.905" height="17.942" fill="none"/>
    </clipPath>
    <clipPath id="clip-path-14">
      <rect id="Rectangle_868" data-name="Rectangle 868" width="18.955" height="18.168" fill="none"/>
    </clipPath>
  </defs>
  <g id="Group_573" data-name="Group 573" clip-path="url(#clip-path)">
    <g id="Group_572" data-name="Group 572">
      <g id="Group_571" data-name="Group 571" clip-path="url(#clip-path)">
        <path id="Path_625" data-name="Path 625" d="M0,81.979c2.276,5.6,4.5,11.219,6.838,16.792,3.269,7.8,5.972,15.86,10.233,23.216q21.483,37.088,63.577,45.294a88.384,88.384,0,0,0,40.186-1.742c1.331-.359,1.964-.657,1.4-2.345-1.417-4.209-1.3-4.249-5.6-3.177-39.574,9.865-81.523-10.9-97.675-48.426-3.369-7.826-6.466-15.769-9.685-23.66a2.124,2.124,0,0,1-.163-.939c22.375,28.357,51.271,44.1,87.616,44.122,36.4.022,65.332-15.7,87.7-44.235.055.241.159.417.112.531-3.881,9.314-7.309,18.818-11.655,27.933a73.985,73.985,0,0,1-9.043,14.319c-.708.886-.827,1.433.216,2.039a10.041,10.041,0,0,1,1.176.947c2.746,2.209,2.715,2.186,4.888-.7,6.184-8.2,10.417-17.411,14.113-26.922,2.564-6.6,5.308-13.129,8-19.678a16.448,16.448,0,0,0-1.281-15.668q-14.34-23.478-28.611-47C155.317,11.094,145.286,3.694,132.01.958c-12.239-2.522-23.574,0-33.985,6.825-.768.5-1.268.809-2.269.15C73.7-6.59,45.655-.524,31.8,21.861,21.915,37.833,12.259,53.948,2.462,69.976A38.629,38.629,0,0,0,0,75.929ZM153.032,57.491a15.1,15.1,0,0,0-5.32,3.9c-.777.968-1.1.857-1.913-.025a15.477,15.477,0,0,0-23.055.024c-.826.9-1.093.893-1.915-.007a15.464,15.464,0,0,0-23.045,0c-1,1.1-1.292.689-2.037-.121a15.51,15.51,0,0,0-20.7-1.926c-1.142.862-2.187,2.752-3.175,2.684-1.17-.08-2.223-1.775-3.341-2.754a6.87,6.87,0,0,0-.93-.642,15.687,15.687,0,0,0-19.811,2.663c-.319.337-.563,1.552-1.321.675a19.194,19.194,0,0,0-7.16-5.024,76.928,76.928,0,0,1,19.175-6.214c1.4-.266,3.345-.072,4.07-.919.88-1.03-.26-2.86-.213-4.37.006-.187-.044-.375-.057-.563-.058-.873-.443-1.137-1.357-1A82.773,82.773,0,0,0,20.752,61.106c-3.464,2.761-6.724,5.78-10.1,8.7-.321-.76.116-1.272.434-1.795,8.893-14.588,17.594-29.3,26.738-43.725A38.456,38.456,0,0,1,93.3,13.919c3.516,2.555,3.491,2.52,7.067-.031,8.8-6.277,18.547-8.8,29.245-6.925,12.045,2.108,21.06,8.641,27.365,19.09,8.277,13.717,16.65,27.375,24.978,41.061.3.5.566,1.025.847,1.539a5.279,5.279,0,0,1-1.766-1.1c-18.176-15.413-39.153-23.432-63.005-23.74-8.694-.112-17.39-.021-26.085-.022-4.594,0-4.523,0-4.611,4.525-.029,1.518.414,1.87,1.885,1.859,9.261-.068,18.524.012,27.786-.048a89.532,89.532,0,0,1,24.047,3.138,74.2,74.2,0,0,1,11.984,4.231m-2.871,52.316c-35.559,22.2-79.415,17.963-106.333.06.729-.858,1.551-1.733,2.262-2.692.6-.808.934-.616,1.557.027,6.912,7.133,16.482,7.181,23.287.083.822-.857,1.1-.689,1.815.065,6.551,6.93,16.544,6.979,23.032.067.955-1.018,1.277-.784,2.082.068a15.361,15.361,0,0,0,22.9-.068c.964-1.033,1.291-.767,2.082.069a15.467,15.467,0,0,0,21,1.766c1.082-.835,1.861-2.686,3.025-2.518,1.113.161,2.021,1.74,3.016,2.7a3.2,3.2,0,0,1,.275.373M84.318,81.234c-2.705,0-5.41-.015-8.115.01-.777.007-1.3-.033-1.274-1.071.07-2.829-.1-5.669.07-8.491.31-5.317,4.16-9.019,9.2-9.05,5.194-.032,9.075,3.608,9.4,9.017.17,2.821.007,5.661.075,8.49.024,1-.427,1.119-1.245,1.109-2.7-.034-5.41-.013-8.115-.013m25.122,0c-2.768,0-5.536-.007-8.3.005-.671,0-1.242.032-1.2-.944.129-3.265-.231-6.545.207-9.8a9.265,9.265,0,0,1,18.271-.273c.519,3.188.077,6.408.267,9.6.073,1.231-.392,1.464-1.5,1.432-2.577-.074-5.158-.024-7.737-.024m-50.1,0c-2.705,0-5.41-.012-8.115.007-.749.006-1.316.023-1.289-1.045.074-2.892-.108-5.8.081-8.678a9.167,9.167,0,0,1,9.358-8.887c5.089.013,8.916,3.67,9.215,8.99.158,2.822.014,5.66.079,8.49.022.955-.354,1.153-1.214,1.139-2.7-.043-5.41-.016-8.115-.016m75.111,0c-2.768,0-5.537-.026-8.3.015-.849.012-1.249-.166-1.221-1.131.088-3.079-.062-6.173.169-9.239a8.955,8.955,0,0,1,8.554-8.235c4.982-.177,8.9,2.836,9.728,7.566.588,3.369.118,6.779.266,10.167.046,1.05-.673.85-1.266.852-2.642.01-5.284,0-7.926,0m-.322,6.356c2.77,0,5.541.025,8.311-.015.852-.013,1.24.167,1.218,1.137-.064,2.769.072,5.545-.054,8.309a9.331,9.331,0,0,1-9.161,9.168,9.194,9.194,0,0,1-9.437-9.019c-.161-2.761-.015-5.539-.08-8.308-.023-.976.264-1.317,1.27-1.294,2.643.062,5.288.021,7.933.021m-74.945,0c2.707,0,5.415.024,8.122-.014.882-.012,1.4.087,1.366,1.195-.1,3.018.066,6.052-.161,9.058a9.112,9.112,0,0,1-8.7,8.357A9.214,9.214,0,0,1,50.226,98.6c-.57-3.185-.091-6.41-.289-9.608-.077-1.24.409-1.457,1.507-1.427,2.579.071,5.162.023,7.744.023m49.94,0c2.77,0,5.541.022,8.311-.013.837-.011,1.256.152,1.234,1.131-.064,2.769.082,5.546-.058,8.309a9.307,9.307,0,0,1-18.609.156c-.185-2.821-.015-5.665-.081-8.5-.023-1.01.47-1.106,1.269-1.1,2.644.028,5.289.011,7.933.011m-24.846,0c2.707,0,5.415.017,8.122-.011.8-.008,1.312.079,1.269,1.094-.137,3.2.226,6.424-.208,9.619a9.253,9.253,0,0,1-18.272.22c-.532-3.315-.108-6.662-.252-9.991-.042-.984.561-.936,1.219-.934,2.708.007,5.415,0,8.122,0m74.906-6.358c-2.642,0-5.285-.027-7.927.015-.887.014-1.361-.1-1.326-1.192.094-2.954-.048-5.918.11-8.867a9.024,9.024,0,0,1,8.276-8.529c5.1-.3,9.1,2.629,10.015,7.437.65,3.425.136,6.9.29,10.351.041.918-.583.783-1.132.783q-4.152.005-8.3,0m-124.771,0c-2.768,0-5.537-.014-8.3.009-.713.006-1.169-.049-1.15-.979.061-2.956-.126-5.925.084-8.867A9.178,9.178,0,0,1,34.9,62.644c4.86.15,8.562,4.053,8.719,9.293.079,2.64-.061,5.288.054,7.925.055,1.275-.457,1.419-1.521,1.392-2.578-.066-5.159-.021-7.738-.021m-.116,6.36c2.709,0,5.418.022,8.126-.014.821-.011,1.26.112,1.234,1.1-.079,3.021.04,6.051-.115,9.066-.172,3.348-2.017,5.7-4.862,7.363a1.885,1.885,0,0,1-2.507-.163,79.2,79.2,0,0,0-6.612-5.325c-3.731-2.552-5.455-5.843-4.588-10.36a1.074,1.074,0,0,0,0-.377c-.2-1.141.373-1.341,1.388-1.317,2.644.064,5.29.021,7.936.022m124.878,0c1.071,0,2.142-.012,3.213,0,2.006.027,4.718-.705,5.834.31,1.276,1.161.275,3.91.39,5.966a2.31,2.31,0,0,1-.622,2.056,120.726,120.726,0,0,1-10.781,9.175,1.658,1.658,0,0,1-2.026.161c-2.958-1.6-4.9-3.965-5.114-7.392-.179-2.951-.023-5.92-.144-8.876-.051-1.234.394-1.458,1.5-1.426,2.581.076,5.165.024,7.747.024m15.775-16.844a83.317,83.317,0,0,1,7.523,6.8c.449.449.673.775.16,1.392-2.481,2.987-4.909,6.017-7.6,9.337.056-1.839-1.12-3.12-.6-4.648a11.265,11.265,0,0,0,.531-3.7c-.012-2.943,0-5.886,0-9.187m-156.662.827.536.148c-.934,5.4.842,10.791-.211,16.61-2.681-3.291-5.093-6.249-7.5-9.213-.273-.337-.542-.661-.051-1.1,2.42-2.136,4.818-4.3,7.224-6.45" transform="translate(0 0)" fill="#7b74cf"/>
        <path id="Path_626" data-name="Path 626" d="M44.577,311.336c4.555-15.716,14.455-25.752,30.27-29.848l-.259-.5q-3.313-1.349-6.628-2.7a32.784,32.784,0,0,1-19.638-21.023c-1.168-3.552-2.4-7.084-3.755-11.1-1.335,3.962-2.54,7.459-3.69,10.974a33.023,33.023,0,0,1-20.09,21.315c-2.091.835-4.179,1.673-6.493,2.81,15.728,4.284,25.71,14.28,30.28,30.067m-.021-15.495A43.724,43.724,0,0,0,29.8,281.067a40.059,40.059,0,0,0,14.765-16.1,40.584,40.584,0,0,0,14.761,16.129,43.682,43.682,0,0,0-14.771,14.751" transform="translate(111.559 -121.77)" fill="#7b74cf"/>
        <g id="Group_537" data-name="Group 537" transform="translate(74.922 62.631)" opacity="0.96">
          <g id="Group_536" data-name="Group 536">
            <g id="Group_535" data-name="Group 535" clip-path="url(#clip-path-3)">
              <path id="Path_627" data-name="Path 627" d="M207.175,142.54c2.705,0,5.411-.021,8.115.013.818.01,1.269-.112,1.245-1.108-.068-2.829.1-5.669-.075-8.49-.327-5.41-4.208-9.049-9.4-9.017-5.043.031-8.893,3.732-9.2,9.05-.165,2.822,0,5.661-.07,8.49-.026,1.038.5,1.079,1.274,1.072,2.7-.025,5.41-.01,8.115-.01" transform="translate(-197.779 -123.937)" fill="#e0e1e3"/>
            </g>
          </g>
        </g>
        <g id="Group_540" data-name="Group 540" transform="translate(99.914 62.632)" opacity="0.96">
          <g id="Group_539" data-name="Group 539">
            <g id="Group_538" data-name="Group 538" clip-path="url(#clip-path-4)">
              <path id="Path_628" data-name="Path 628" d="M157.833,142.54c2.579,0,5.16-.051,7.737.024,1.108.032,1.573-.2,1.5-1.432-.191-3.2.252-6.417-.267-9.605a9.265,9.265,0,0,0-18.272.273c-.437,3.256-.077,6.535-.206,9.8-.039.976.533.946,1.2.944,2.768-.011,5.536,0,8.3,0" transform="translate(-148.307 -123.939)" fill="#e0e1e3"/>
            </g>
          </g>
        </g>
        <g id="Group_543" data-name="Group 543" transform="translate(49.932 62.631)" opacity="0.96">
          <g id="Group_542" data-name="Group 542">
            <g id="Group_541" data-name="Group 541" clip-path="url(#clip-path-5)">
              <path id="Path_629" data-name="Path 629" d="M256.683,142.54c2.705,0,5.411-.027,8.115.016.86.014,1.236-.184,1.214-1.139-.066-2.829.079-5.667-.079-8.49-.3-5.32-4.126-8.976-9.215-8.989a9.167,9.167,0,0,0-9.358,8.887c-.189,2.882-.008,5.786-.081,8.678-.027,1.067.54,1.05,1.289,1.045,2.705-.019,5.41-.008,8.115-.008" transform="translate(-247.27 -123.938)" fill="#e0e1e3"/>
            </g>
          </g>
        </g>
        <g id="Group_546" data-name="Group 546" transform="translate(124.929 62.637)" opacity="0.96">
          <g id="Group_545" data-name="Group 545">
            <g id="Group_544" data-name="Group 544" clip-path="url(#clip-path-6)">
              <path id="Path_630" data-name="Path 630" d="M108.358,142.546c2.642,0,5.284.006,7.927,0,.593,0,1.312.2,1.266-.852-.149-3.388.321-6.8-.266-10.167-.825-4.731-4.746-7.743-9.728-7.566A8.955,8.955,0,0,0,99,132.191c-.231,3.066-.081,6.16-.169,9.239-.027.965.371,1.143,1.221,1.13,2.767-.04,5.536-.015,8.3-.015" transform="translate(-98.832 -123.949)" fill="#e0e1e3"/>
            </g>
          </g>
        </g>
        <g id="Group_549" data-name="Group 549" transform="translate(124.928 87.568)" opacity="0.96">
          <g id="Group_548" data-name="Group 548">
            <g id="Group_547" data-name="Group 547" clip-path="url(#clip-path-7)">
              <path id="Path_631" data-name="Path 631" d="M108.082,173.306c-2.644,0-5.29.041-7.933-.021-1.006-.023-1.294.317-1.27,1.294.066,2.769-.081,5.547.08,8.308a9.194,9.194,0,0,0,9.437,9.019,9.331,9.331,0,0,0,9.161-9.169c.126-2.765-.011-5.541.054-8.309.022-.969-.366-1.149-1.218-1.137-2.77.04-5.541.015-8.311.015" transform="translate(-98.877 -173.284)" fill="#e0e1e3"/>
            </g>
          </g>
        </g>
        <g id="Group_552" data-name="Group 552" transform="translate(49.929 87.565)" opacity="0.96">
          <g id="Group_551" data-name="Group 551">
            <g id="Group_550" data-name="Group 550" clip-path="url(#clip-path-8)">
              <path id="Path_632" data-name="Path 632" d="M256.522,173.3c-2.581,0-5.164.048-7.744-.023-1.1-.03-1.584.186-1.507,1.427.2,3.2-.28,6.423.289,9.608a9.213,9.213,0,0,0,9.593,7.584,9.111,9.111,0,0,0,8.7-8.357c.227-3.006.062-6.04.162-9.058.036-1.107-.484-1.207-1.366-1.194-2.707.038-5.415.014-8.122.014" transform="translate(-247.264 -173.277)" fill="#e0e1e3"/>
            </g>
          </g>
        </g>
        <g id="Group_555" data-name="Group 555" transform="translate(99.916 87.577)" opacity="0.96">
          <g id="Group_554" data-name="Group 554">
            <g id="Group_553" data-name="Group 553" clip-path="url(#clip-path-9)">
              <path id="Path_633" data-name="Path 633" d="M157.533,173.315c-2.644,0-5.289.018-7.933-.011-.8-.009-1.293.087-1.269,1.1.065,2.831-.1,5.675.081,8.5a9.307,9.307,0,0,0,18.608-.156c.139-2.763-.006-5.54.058-8.309.022-.979-.4-1.142-1.234-1.131-2.77.035-5.541.013-8.311.013" transform="translate(-148.321 -173.301)" fill="#e0e1e3"/>
            </g>
          </g>
        </g>
        <g id="Group_558" data-name="Group 558" transform="translate(74.915 87.579)" opacity="0.96">
          <g id="Group_557" data-name="Group 557">
            <g id="Group_556" data-name="Group 556" clip-path="url(#clip-path-10)">
              <path id="Path_634" data-name="Path 634" d="M207.142,173.317c-2.708,0-5.415,0-8.122,0-.658,0-1.262-.049-1.22.935.144,3.329-.28,6.676.252,9.991a9.253,9.253,0,0,0,18.272-.22c.434-3.2.071-6.415.208-9.619.043-1.015-.474-1.1-1.269-1.094-2.707.027-5.415.011-8.122.011" transform="translate(-197.775 -173.306)" fill="#e0e1e3"/>
            </g>
          </g>
        </g>
        <g id="Group_561" data-name="Group 561" transform="translate(149.934 62.638)" opacity="0.96">
          <g id="Group_560" data-name="Group 560">
            <g id="Group_559" data-name="Group 559" clip-path="url(#clip-path-11)">
              <path id="Path_635" data-name="Path 635" d="M58.639,142.545q4.152,0,8.3,0c.549,0,1.173.134,1.132-.783-.154-3.449.36-6.927-.29-10.352-.913-4.807-4.914-7.735-10.015-7.437A9.025,9.025,0,0,0,49.5,132.5c-.158,2.949-.016,5.914-.11,8.867-.034,1.09.439,1.206,1.326,1.193,2.642-.042,5.285-.016,7.927-.016" transform="translate(-49.384 -123.951)" fill="#e0e1e3"/>
            </g>
          </g>
        </g>
        <g id="Group_564" data-name="Group 564" transform="translate(24.944 62.639)" opacity="0.96">
          <g id="Group_563" data-name="Group 563">
            <g id="Group_562" data-name="Group 562" clip-path="url(#clip-path-12)">
              <path id="Path_636" data-name="Path 636" d="M306.2,142.546c2.579,0,5.16-.045,7.738.022,1.064.027,1.576-.117,1.521-1.392-.115-2.638.025-5.285-.054-7.926-.157-5.239-3.859-9.143-8.719-9.293a9.178,9.178,0,0,0-9.856,8.751c-.209,2.943-.023,5.912-.084,8.867-.019.931.438.985,1.15.979,2.768-.023,5.537-.009,8.3-.009" transform="translate(-296.73 -123.952)" fill="#e0e1e3"/>
            </g>
          </g>
        </g>
        <g id="Group_567" data-name="Group 567" transform="translate(24.758 87.569)" opacity="0.96">
          <g id="Group_566" data-name="Group 566">
            <g id="Group_565" data-name="Group 565" clip-path="url(#clip-path-13)">
              <path id="Path_637" data-name="Path 637" d="M306.308,173.308c-2.646,0-5.293.042-7.936-.021-1.014-.025-1.584.175-1.387,1.316a1.071,1.071,0,0,1,0,.377c-.867,4.516.858,7.808,4.588,10.36a79.009,79.009,0,0,1,6.612,5.326,1.885,1.885,0,0,0,2.507.162c2.845-1.659,4.691-4.015,4.862-7.363.155-3.016.036-6.045.115-9.066.026-.991-.414-1.114-1.235-1.1-2.708.036-5.417.014-8.125.014" transform="translate(-296.764 -173.285)" fill="#e0e1e3"/>
            </g>
          </g>
        </g>
        <g id="Group_570" data-name="Group 570" transform="translate(149.926 87.364)" opacity="0.96">
          <g id="Group_569" data-name="Group 569">
            <g id="Group_568" data-name="Group 568" clip-path="url(#clip-path-14)">
              <path id="Path_638" data-name="Path 638" d="M58.229,173.108c-2.583,0-5.167.052-7.747-.024-1.109-.033-1.553.192-1.5,1.426.121,2.956-.035,5.925.144,8.876.208,3.426,2.156,5.792,5.114,7.392a1.658,1.658,0,0,0,2.026-.161,120.8,120.8,0,0,0,10.781-9.175,2.31,2.31,0,0,0,.622-2.056c-.115-2.055.886-4.8-.39-5.966-1.115-1.015-3.827-.282-5.834-.309-1.07-.015-2.142,0-3.212,0" transform="translate(-48.975 -172.88)" fill="#e0e1e3"/>
            </g>
          </g>
        </g>
        <path id="Path_639" data-name="Path 639" d="M215.412,65.689c1.33-4,2.556-7.546,3.69-11.125a17.757,17.757,0,0,1,7.484-9.826c2.732-1.776,5.428-3.605,8.4-5.586-5.048-1.767-10.12-2.9-13.567-7.144-3.327-4.094-3.951-9.277-6.059-14.232-.829,2.484-1.67,4.738-2.335,7.042-1.96,6.795-6.363,11.063-13.131,12.973-1.263.356-2.5.793-3.8,1.207.311.868,1.1,1.063,1.677,1.461q3.259,2.241,6.577,4.4a17.26,17.26,0,0,1,7.262,9.532c1.144,3.627,2.417,7.213,3.795,11.3m-.01-18.405a23.866,23.866,0,0,0-5.454-6.172c-.738-.574-.415-.851.113-1.223a21.654,21.654,0,0,0,4.73-4.577c.344-.449.619-.818,1.114-.133a25.032,25.032,0,0,0,5.633,5.362,25.022,25.022,0,0,0-6.136,6.744" transform="translate(-140.458 -8.793)" fill="#7b74cf"/>
      </g>
    </g>
  </g>
</svg>
