<svg xmlns="http://www.w3.org/2000/svg" xmlns:xlink="http://www.w3.org/1999/xlink" width="222.396" height="112.477" viewBox="0 0 222.396 112.477">
  <defs>
    <clipPath id="clip-path">
      <rect id="Rectangle_881" data-name="Rectangle 881" width="209.012" height="61.224" fill="rgba(0,0,0,0)"/>
    </clipPath>
  </defs>
  <g id="Group_773" data-name="Group 773" transform="translate(-586.182 -3154.678)">
    <g id="Group_586" data-name="Group 586" transform="translate(586.182 3205.931)" opacity="0.88">
      <g id="Group_585" data-name="Group 585">
        <g id="Group_584" data-name="Group 584" clip-path="url(#clip-path)">
          <path id="Path_647" data-name="Path 647" d="M220.058,91.15a101.124,101.124,0,0,1-1.3,15.894,10.959,10.959,0,0,1-5.889,8.3c-4.363,2.4-9.136,3.392-14.013,4.015a30.3,30.3,0,0,1-9.913-.076,2.109,2.109,0,0,0-1.627.291c-7.71,4.622-16.265,5.452-24.983,5.538a3.66,3.66,0,0,1-.433-.015c-3.779-.424-7.32-.758-10.943,1.607-2.974,1.941-6.949,1.612-10.524,1.951-6.837.65-13.745,1.17-20.487-.287a19.588,19.588,0,0,0-8.824,0c-6.669,1.461-13.507.885-20.275.327-2.653-.219-5.279-.745-7.923-1.078a10.4,10.4,0,0,1-5.535-2.232,4.193,4.193,0,0,0-3.722-.782c-9.4,1.2-18.6.32-27.273-3.587a15.128,15.128,0,0,0-7.5-1.42,41.222,41.222,0,0,1-19.163-3.48c-4.239-1.889-6.833-4.921-7.524-9.735-1.177-8.194-1.7-16.345-.338-24.561C13.71,70.681,22.4,65.552,33.223,69.3a23.1,23.1,0,0,1,8.266,4.98c.44.41.749,1,1.427.061,3.641-5.053,8.966-6.326,14.732-5.964a25.434,25.434,0,0,1,17.181,7.592c.4.415.72.988,1.293.158,8.047-11.672,24.405-8.824,32.985-1.8a25.358,25.358,0,0,1,5.445,5.839c.819,1.279,1.1,1.2,1.969,0,5.621-7.743,13.256-11.8,22.846-11.927A18.119,18.119,0,0,1,154.4,75.454c.985,1.243,1.3.987,2.317.079C163.53,69.41,171.431,67,180.477,69.11a11.969,11.969,0,0,1,7.41,4.9c.7,1.03,1.091.882,1.875.149a21.306,21.306,0,0,1,12.926-5.9c8.909-.769,15,4.19,16.48,13.151a56.283,56.283,0,0,1,.891,9.74m-33.3,21.183c1.4,1.228,1.978,1.634,3.376,1.768a36.959,36.959,0,0,0,20-3.3,5.833,5.833,0,0,0,3.414-4.665,77.534,77.534,0,0,0,.472-23.292C212.846,75,207.559,71.7,200,74.217a19,19,0,0,0-11.663,10.856c-.248.555-.359,1.409-1.224,1.261-.79-.136-.735-.926-.883-1.553-.346-1.467-.667-2.948-1.149-4.372-1.537-4.535-3.959-6.343-8.742-6.648-9.887-.631-16.955,4.072-20.449,13.521-.392,1.06-.331,3.021-1.662,2.858-1.356-.166-.847-2.035-.922-3.171-.561-8.463-7.308-14.267-15.646-13.4-10.952,1.142-18.393,8.047-20.4,18.874-.233,1.256.108,3.246-1.688,3.288-1.859.043-1.517-1.975-1.745-3.212-1.818-9.9-7.626-16.114-17.347-18.5-10.23-2.508-18,3.292-18.741,13.735-.062.877.248,2.236-.815,2.435-1.227.23-1.178-1.23-1.427-2.023-2.176-6.942-6.292-12.092-13.626-13.7-11.063-2.429-15.126.522-16.91,9.381-.043.212-.083.425-.106.641-.073.709.01,1.647-.826,1.817-1.094.222-1.093-.909-1.408-1.571A19.22,19.22,0,0,0,30.533,74.024c-7.141-2.162-12.324,1.168-13.451,8.524-1.148,7.492-.7,14.948.239,22.438a7.5,7.5,0,0,0,5.291,6.623,39.206,39.206,0,0,0,16.949,2.622,6.52,6.52,0,0,0,4.222-1.372c.4-.363.661-.539.917.029,1.2,2.669,3.769,3.432,6.178,4.314a44.381,44.381,0,0,0,13.764,2.555c4.472.155,9.1.661,12.988-2.516a7.267,7.267,0,0,0,5.921,5.14,103.77,103.77,0,0,0,24.175,1.258c2.663-.141,5.32-.578,6.924-3.254.67-1.118,1.472-.6,2,.273a5.64,5.64,0,0,0,4.479,2.651,95.933,95.933,0,0,0,25.029-.714c3.5-.52,6.1-1.924,7.355-5.477a7.646,7.646,0,0,0,4.843,2.311,47.939,47.939,0,0,0,20.94-1.91c2.936-.872,5.945-1.9,7.461-5.187" transform="translate(-11.055 -68.083)" fill="#edeeef"/>
          <path id="Path_648" data-name="Path 648" d="M190.5,116.045c-1.516,3.283-4.525,4.315-7.461,5.187a47.938,47.938,0,0,1-20.94,1.91,7.646,7.646,0,0,1-4.843-2.311c-1.26,3.553-3.852,4.957-7.355,5.477a95.935,95.935,0,0,1-25.029.714,5.64,5.64,0,0,1-4.479-2.651c-.53-.875-1.332-1.391-2-.273-1.6,2.676-4.26,3.113-6.924,3.254A103.769,103.769,0,0,1,87.3,126.094a7.267,7.267,0,0,1-5.921-5.14c-3.886,3.178-8.516,2.672-12.988,2.517a44.381,44.381,0,0,1-13.764-2.555c-2.408-.882-4.975-1.645-6.178-4.314-.256-.568-.518-.392-.917-.029a6.52,6.52,0,0,1-4.222,1.372,39.206,39.206,0,0,1-16.949-2.622,7.5,7.5,0,0,1-5.291-6.623c-.942-7.491-1.386-14.947-.239-22.438,1.127-7.355,6.31-10.685,13.451-8.524A19.219,19.219,0,0,1,46.366,88.448c.316.662.314,1.793,1.408,1.571.836-.17.753-1.108.826-1.817.022-.215.063-.428.106-.641,1.784-8.859,5.847-11.81,16.91-9.381,7.334,1.61,11.45,6.76,13.626,13.7.249.793.2,2.253,1.427,2.023,1.063-.2.753-1.558.815-2.435.74-10.443,8.511-16.244,18.741-13.735,9.721,2.384,15.529,8.594,17.347,18.5.227,1.237-.114,3.255,1.745,3.212,1.8-.042,1.456-2.031,1.688-3.287,2.009-10.827,9.449-17.732,20.4-18.874,8.338-.869,15.085,4.936,15.646,13.4.075,1.136-.434,3,.922,3.171,1.331.163,1.27-1.8,1.662-2.858,3.494-9.449,10.561-14.151,20.449-13.521,4.784.306,7.206,2.113,8.742,6.648.483,1.424.8,2.906,1.15,4.372.148.626.092,1.417.883,1.553.865.148.976-.706,1.224-1.261a19,19,0,0,1,11.663-10.856c7.559-2.515,12.845.788,14.019,8.625a77.535,77.535,0,0,1-.472,23.292,5.833,5.833,0,0,1-3.414,4.665,36.959,36.959,0,0,1-20,3.3c-1.4-.135-1.978-.541-3.376-1.768" transform="translate(-14.803 -71.796)" fill="#e0e1e3"/>
        </g>
      </g>
    </g>
    <rect id="Rectangle_883" data-name="Rectangle 883" width="220.985" height="101.235" transform="translate(587.593 3154.678)" fill="none"/>
  </g>
</svg>
