<svg xmlns="http://www.w3.org/2000/svg" width="39.784" height="39.784" viewBox="0 0 39.784 39.784">
  <path id="Icon_ionic-logo-whatsapp" data-name="Icon ionic-logo-whatsapp" d="M22.5,2.25A19.455,19.455,0,0,0,2.972,21.63a19.179,19.179,0,0,0,2.8,10.007L2.25,42.034,13.063,38.6A19.564,19.564,0,0,0,42.034,21.63,19.455,19.455,0,0,0,22.5,2.25Zm9.712,26.739c-.459,1.139-2.537,2.179-3.454,2.226s-.942.71-5.936-1.459-8-7.446-8.234-7.785a9.578,9.578,0,0,1-1.843-5.191,5.534,5.534,0,0,1,1.9-4.061A1.913,1.913,0,0,1,16,12.15c.393-.006.648-.012.939,0s.727-.061,1.106.945,1.283,3.477,1.4,3.729a.9.9,0,0,1,.009.868,3.392,3.392,0,0,1-.529.807c-.261.28-.548.625-.781.839-.259.237-.53.495-.258,1a14.945,14.945,0,0,0,2.644,3.529,13.626,13.626,0,0,0,3.916,2.6c.49.267.782.237,1.086-.082s1.3-1.4,1.651-1.88.68-.388,1.132-.207,2.856,1.47,3.345,1.736.816.4.933.613A4.1,4.1,0,0,1,32.214,28.989Z" transform="translate(-2.25 -2.25)" fill="#3e359d"/>
</svg>
