<svg xmlns="http://www.w3.org/2000/svg" xmlns:xlink="http://www.w3.org/1999/xlink" width="145" height="145" viewBox="0 0 145 145">
  <defs>
    <filter id="Ellipse_1" x="0" y="0" width="145" height="145" filterUnits="userSpaceOnUse">
      <feOffset dy="3" input="SourceAlpha"/>
      <feGaussianBlur stdDeviation="3" result="blur"/>
      <feFlood flood-opacity="0.161"/>
      <feComposite operator="in" in2="blur"/>
      <feComposite in="SourceGraphic"/>
    </filter>
  </defs>
  <g id="Group_772" data-name="Group 772" transform="translate(-1675 -886)">
    <g id="Group_18" data-name="Group 18" transform="translate(1376 152.089)">
      <g transform="matrix(1, 0, 0, 1, 299, 733.91)" filter="url(#Ellipse_1)">
        <circle id="Ellipse_1-2" data-name="Ellipse 1" cx="63.5" cy="63.5" r="63.5" transform="translate(9 6)" fill="#5fd625"/>
      </g>
      <g id="Group_17" data-name="Group 17" transform="translate(335.047 767.047)">
        <path id="Path_17" data-name="Path 17" d="M0,33.066A9.777,9.777,0,0,0,.382,30.7,35.662,35.662,0,0,1,26.24,1.42c14.4-3.782,26.8.025,36.855,11.006A33.495,33.495,0,0,1,71.625,31.05a35.1,35.1,0,0,1-7.353,27.162,36.523,36.523,0,0,1-8.143,7.659,33.073,33.073,0,0,1-9.692,4.654c-14.037,3.992-28.19-3.185-28.5-3.373a1.182,1.182,0,0,0-.479-.176,1.316,1.316,0,0,0-.57.066c-4.446,1.385-8.9,2.741-13.352,4.114A1.579,1.579,0,0,1,1.779,70.9a1.6,1.6,0,0,1-.259-1.7c1.247-4.488,2.468-8.984,3.729-13.468a1.51,1.51,0,0,0-.181-1.306A35.652,35.652,0,0,1,.4,41.411,10.928,10.928,0,0,0,0,38.828ZM4.832,67.7c.164.117.267.041.375.008,3.806-1.172,7.616-2.33,11.415-3.526a2.465,2.465,0,0,1,2.188.228A33.249,33.249,0,0,0,49,66.543,33.121,33.121,0,0,0,68.607,30.031,32.3,32.3,0,0,0,54.114,8.257,32.044,32.044,0,0,0,29.941,3.4,32.358,32.358,0,0,0,10.2,15.152,32.35,32.35,0,0,0,3.046,31.991,33.148,33.148,0,0,0,3.6,43.283,32.386,32.386,0,0,0,7.9,53.7a2.277,2.277,0,0,1,.268,1.994c-.525,1.788-1,3.59-1.5,5.386C6.057,63.292,5.442,65.5,4.832,67.7" transform="translate(0 0)" fill="#fff" stroke="#fff" stroke-width="1"/>
        <path id="Path_19" data-name="Path 19" d="M83.2,96.271A29.079,29.079,0,0,1,66.753,91.2,43.406,43.406,0,0,1,50.617,71.038c-2-4.93-1.193-9.658,1.333-14.186a22.162,22.162,0,0,1,2.686-3.76,2.413,2.413,0,0,1,1.627-.839,10.98,10.98,0,0,1,3.554-.129,2.294,2.294,0,0,1,1.6,1.018,48.474,48.474,0,0,1,4.706,9.2,4.532,4.532,0,0,1-.568,3.881A10.843,10.843,0,0,1,63.525,68.8a1.277,1.277,0,0,0-.267,1.668,12.012,12.012,0,0,0,1.812,2.9A42.551,42.551,0,0,0,77.1,83.016c1.086.611,1.234.539,2.157-.364a23.3,23.3,0,0,0,3.477-4.215,3.1,3.1,0,0,1,4.4-1c.677.364,1.331.777,1.976,1.2,2.211,1.44,4.442,2.848,6.738,4.15a1.544,1.544,0,0,1,.916,1.716,15.459,15.459,0,0,1-3,7.291,11.724,11.724,0,0,1-7.387,4.182,16.533,16.533,0,0,1-3.163.3m-.419-2.8a13.585,13.585,0,0,0,5.552-.954c3.242-1.376,4.708-4.084,5.452-7.326.059-.259-.067-.373-.267-.5q-3.748-2.328-7.485-4.675c-.523-.329-.84-.229-1.186.287a20.444,20.444,0,0,1-3.763,4.426c-2.3,1.924-2.969,1.889-5.16.774A41.92,41.92,0,0,1,63.7,76.112a14.465,14.465,0,0,1-3.385-5.661,2.675,2.675,0,0,1,.692-3.056,12.119,12.119,0,0,0,1.9-2.247,2.553,2.553,0,0,0,.322-2.74c-1.083-2.329-2.269-4.6-3.535-6.833a1.407,1.407,0,0,0-1.514-.766,2.8,2.8,0,0,0-2.465,1.377,26.066,26.066,0,0,0-2.2,3.891,12.333,12.333,0,0,0-.325,9.873A42.417,42.417,0,0,0,66.31,87.494a26.709,26.709,0,0,0,16.475,5.974" transform="translate(-36.593 -38.461)" fill="#fff" stroke="#fff" stroke-width="1"/>
      </g>
    </g>
  </g>
</svg>
